<?xml version="1.0" ?><!DOCTYPE svg  PUBLIC '-//W3C//DTD SVG 1.1//EN'  'http://www.w3.org/Graphics/SVG/1.1/DTD/svg11.dtd'><svg height="512px" style="shape-rendering:geometricPrecision; text-rendering:geometricPrecision; image-rendering:optimizeQuality; fill-rule:evenodd; clip-rule:evenodd" version="1.1" viewBox="0 0 512 512" width="512px" xml:space="preserve" xmlns="http://www.w3.org/2000/svg" xmlns:xlink="http://www.w3.org/1999/xlink"><defs><style type="text/css">
   <![CDATA[
    .fil0 {fill:none}
    .fil2 {fill:#B24277}
    .fil1 {fill:#C1558B}
    .fil3 {fill:white}
   ]]>
  </style></defs><g id="Layer_x0020_1"><rect class="fil0" height="512" width="512"/><polygon class="fil1" points="256,106 321,143 386,181 386,256 386,331 321,369 256,406 191,369 126,331 126,256 126,181 191,143 "/><polygon class="fil2" points="256,406 191,369 126,331 126,256 126,181 191,143 256,106 "/><polygon class="fil1" points="256,131 310,162 364,193 364,256 364,319 310,350 256,381 202,350 148,319 148,256 148,193 202,162 "/><g id="_660852048"><path class="fil3" d="M225 192c-7,0 -15,3 -20,8 -3,2 -4,3 -6,6 -4,5 -6,11 -7,17 -1,5 0,26 0,32 0,6 0,11 0,16 0,15 -2,24 8,36l2 2c0,1 0,1 1,1 1,2 6,5 8,6 11,5 17,4 28,4l32 0c11,0 19,2 29,-3 3,-2 4,-3 7,-5l2 -2c3,-2 6,-6 7,-9 5,-11 4,-16 4,-28l0 -32c0,-15 2,-24 -8,-36 -3,-4 -7,-7 -11,-9 -4,-2 -7,-3 -12,-4 -5,-1 -26,0 -32,0 -6,0 -11,0 -16,0 -5,0 -11,-1 -16,0zm1 12c-6,1 -10,3 -14,6l-3 3c-5,7 -5,12 -5,21l0 39c0,10 -1,17 5,25 1,2 3,4 4,5 7,5 12,5 21,5 5,0 49,0 52,0 5,-1 9,-2 12,-5l3 -2c7,-8 7,-14 7,-23l0 -39c0,-9 1,-16 -3,-23 -2,-2 -2,-2 -3,-4 0,-1 -1,-1 -2,-1 0,-1 -1,-2 -1,-2 -7,-5 -11,-5 -21,-5 -13,0 -26,0 -39,0 -4,0 -9,0 -13,0z"/><path class="fil3" d="M252 223c-7,0 -14,4 -20,9 -7,7 -11,18 -9,28 2,17 17,32 37,29 27,-3 41,-38 18,-59 -3,-2 -7,-4 -11,-6 -5,-1 -9,-2 -15,-1zm1 12c-10,1 -20,11 -18,24 1,10 11,20 24,18 10,-1 20,-11 18,-24 -1,-10 -11,-19 -24,-18z"/><path class="fil3" d="M289 214c-4,1 -7,4 -6,9 0,4 4,7 8,7 4,-1 8,-5 7,-9 -1,-4 -4,-7 -9,-7z"/></g></g></svg>